<?xml version="1.0" encoding="utf-8"?>
<!-- Uploaded to: SVG Repo, www.svgrepo.com, Generator: SVG Repo Mixer Tools -->
<svg width="800px" height="800px" viewBox="0 0 1024 1024" class="icon"  version="1.1" xmlns="http://www.w3.org/2000/svg"><path d="M348.3 431.44l438.52 201v159.41a45.06 45.06 0 0 1-45.07 45.05H753v22.53a56.33 56.33 0 0 1-56.34 56.31H313.57a56.33 56.33 0 0 1-56.34-56.31V836.9H246a45.06 45.06 0 0 1-45.07-45.05v-428l17.17 7.87A145.77 145.77 0 0 1 189.63 285v-33.75A112.64 112.64 0 0 1 302.27 138.6H708a112.64 112.64 0 0 1 112.63 112.65V285a146.41 146.41 0 0 1-146.41 146.44zM550.2 836.9a22.53 22.53 0 0 1-22.54-22.53V701.75a90.14 90.14 0 0 0-180.29 0v112.63a22.53 22.53 0 0 1-22.54 22.53z" fill="#FFFFFF" /><path d="M673.39 487.21V763.7h81.92v30.72c0 26.13-25.53 51.2-61.44 51.2H407.16c-35.91 0-61.44-25.07-61.44-51.2V487.21z" fill="#FF5A5A" /><path d="M741.75 836.9H550.2a22.54 22.54 0 0 1-22.54-22.54V701.68a90.14 90.14 0 1 0-180.29 0v112.68a22.54 22.54 0 0 1-22.54 22.54h-11.26a45.07 45.07 0 0 1-45.07-45.08V431.44h425.6q48.16 0 113.44-123.89h13.08c19.44 6.14 33.8 23.79 33.8 44.79v169c0 48.68-27.82 91.82-67.61 118.46v152a45.07 45.07 0 0 1-45.06 45.1z" fill="#FFCFCF" /><path d="M437.69 683.28l67.6-38.01 22.54 12.67-67.61 38.01 67.61 38.01-22.54 12.67-67.6-38.01-67.61 38.01-22.54-12.67 67.61-38.01-67.61-38.01 22.54-12.67 67.61 38.01z" fill="#FF6767" /><path d="M437.69 765.3l67.6-38.01 22.54 12.67-67.61 38.01 67.61 38.02-22.54 12.67-67.6-38.02-67.61 38.02-22.54-12.67 67.61-38.02-67.61-38.01 22.54-12.67 67.61 38.01z" fill="#FF6767" /><path d="M757.14 149.87a112.65 112.65 0 0 1 63.48 101.38V285a146.31 146.31 0 0 1-68.35 123.89H454.36a129.52 129.52 0 0 1-129.52-129.5v-16.88a112.64 112.64 0 0 1 112.64-112.64z" fill="#FFD2D1" /><path d="M652.91 292.64h81.92a112.64 112.64 0 0 1 112.64 112.64v92.17a153.6 153.6 0 0 1-153.6 153.6 153.6 153.6 0 0 1-153.6-153.6v-92.17a112.64 112.64 0 0 1 112.64-112.64z" fill="#FF7C7C" /><path d="M745.07 855.87H550.51a42.75 42.75 0 0 1-33-15.33 35.82 35.82 0 0 1-8-27.26V702.72a76.73 76.73 0 0 0-22.22-50.83 67.71 67.71 0 0 0-98.62 0 77.91 77.91 0 0 0-22.47 50.91V813a35.1 35.1 0 0 1-7.31 27c-7.77 9.9-20.35 15.82-33.65 15.82h-77.92c-32.16 0-61.44-29.29-61.44-61.44V343.85h41v450.57c0 9.57 10.91 20.48 20.48 20.48h77.92V701.24a118.82 118.82 0 0 1 34.49-78.31 112.65 112.65 0 0 1 77.72-33.3h0.8a113 113 0 0 1 78 33.3 117.6 117.6 0 0 1 34.2 78.47v113.5h194.58c9.57 0 20.48-10.91 20.48-20.48V630.58h41v163.84c-0.04 32.16-29.32 61.45-61.48 61.45z" fill="" /><path d="M693.87 937.79H304.76c-18.77 0-37.31-8.95-50.88-24.55-13.41-15.43-20.8-35.8-20.8-57.38v-20.48h41v20.48c0 24.14 16.19 41 30.72 41h389.07c14.53 0 30.72-16.82 30.72-41v-20.48h41v20.48c0 21.57-7.39 41.95-20.8 57.38-13.6 15.6-32.15 24.55-50.92 24.55z" fill="" /><path d="M437.69 678.28l67.6-38.01 22.54 12.67-67.61 38.01 67.61 38.01-22.54 12.67-67.6-38.01-67.61 38.01-22.54-12.67 67.61-38.01-67.61-38.01 22.54-12.67 67.61 38.01z" fill="" /><path d="M437.69 760.3l67.6-38.01 22.54 12.67-67.61 38.01 67.61 38.02L514 828l-76.31-42.36L361 829l-13.46-18.01 67.61-38.02-67.61-38.01 22.54-12.67 67.61 38.01z" fill="" /><path d="M693.87 681.78h-30.72a20.48 20.48 0 0 1 0-41h30.72a156.39 156.39 0 0 0 100.72-37.38c27.5-23.72 42.65-54.07 42.65-85.47V343.85c0-6-1.41-11.35-4-14.94-1.49-2.09-4.22-4.95-10.72-5.66a20.48 20.48 0 1 1 4.48-40.72c30.64 3.33 51.22 28 51.22 61.32v174.08a142 142 0 0 1-15.74 64.61 169.87 169.87 0 0 1-41.11 51.88 197.93 197.93 0 0 1-127.5 47.36z" fill="" /><path d="M719.73 544.07H646A129.59 129.59 0 0 1 518 435a22.53 22.53 0 1 1 44.5-7.06A84.53 84.53 0 0 0 646 499h73.76a22.53 22.53 0 0 1 0 45.06z" fill="" /><path d="M678.51 446.25H340.6c-93.17 0-169-75.8-169-169v-35.81c0-73.4 59.72-133.12 133.12-133.12h409.63c73.4 0 133.12 59.72 133.12 133.12v35.84c0 93.17-75.8 168.97-168.96 168.97z m-373.75-297a92.27 92.27 0 0 0-92.16 92.16v35.84a128.15 128.15 0 0 0 128 128h337.9a128.15 128.15 0 0 0 128-128v-35.81a92.27 92.27 0 0 0-92.16-92.16z" fill="" /></svg>