<?xml version="1.0" encoding="iso-8859-1"?>
<!-- Uploaded to: SVG Repo, www.svgrepo.com, Generator: SVG Repo Mixer Tools -->
<svg version="1.1" id="Layer_1" xmlns="http://www.w3.org/2000/svg" xmlns:xlink="http://www.w3.org/1999/xlink" 
	 viewBox="0 0 511.974 511.974" xml:space="preserve">
<rect x="101.918" y="167.476" style="fill:#434A54;" width="304.97" height="268.97"/>
<g>
	<path style="fill:#CCD1D9;" d="M73.513,181.318H32c-17.64,0-31.999,14.358-31.999,31.998v127.993
		c0,17.64,14.358,31.999,31.999,31.999h41.513c5.906,0,10.671-4.781,10.671-10.672V191.989
		C84.185,186.084,79.419,181.318,73.513,181.318z"/>
	<path style="fill:#CCD1D9;" d="M479.976,181.318h-56.48c-5.891,0-10.656,4.766-10.656,10.671v170.647
		c0,5.891,4.766,10.672,10.656,10.672h56.48c17.641,0,31.998-14.359,31.998-31.999V213.316
		C511.974,195.676,497.617,181.318,479.976,181.318z"/>
</g>
<path style="fill:#ED5564;" d="M456.478,61.215c-15.625-18.187-38.264-32.561-67.31-42.716C354.108,6.217,309.299,0,255.988,0
	c-53.31,0-98.12,6.218-133.18,18.499C93.762,28.654,71.123,43.028,55.499,61.215C29.407,91.605,31.344,122.712,32,128.634v303.562
	l4.546,3.172c0.266,0.188,27.202,19.015,56.388,37.592c61.293,39.014,72.809,39.014,77.73,39.014h170.647
	c4.922,0,16.437,0,77.73-39.014c29.186-18.577,56.121-37.404,56.387-37.592l4.547-3.172V128.633
	C480.633,122.712,482.57,91.604,456.478,61.215z M313.188,290.422c-15.312,12.655-22.827,27.529-22.327,44.217
	c0.469,15.811,8.172,32.248,22.937,48.888c6.422,7.249,12.796,12.905,16.858,16.265v26.842H181.321v-26.842
	c4.062-3.359,10.437-9.016,16.858-16.265c14.749-16.64,22.467-33.077,22.936-48.888c0.5-16.688-7.015-31.562-22.327-44.217
	c-11.718-9.688-32.999-14.594-63.216-14.594c-6.906,0-13.202,0.266-18.249,0.562v-52.48c-0.047-8.031,3.312-15.531,10-22.249
	c26.811-26.983,92.12-31.015,128.665-31.015s101.839,4.031,128.666,31.015c6.687,6.718,10.046,14.218,9.999,22.312l-0.062,52.418
	c-5.031-0.297-11.327-0.562-18.233-0.562C346.172,275.828,324.906,280.734,313.188,290.422z"/>
<g>
	<path style="fill:#DA4453;" d="M376.357,275.828c-30.186,0-51.451,4.906-63.169,14.594c-15.312,12.655-22.827,27.529-22.327,44.217
		c0.078,3.077,0.453,6.171,1.094,9.296c2.594-11.874,9.703-22.655,21.233-32.186c11.718-9.672,32.983-14.593,63.169-14.593
		c6.906,0,13.202,0.266,18.233,0.578l0.062-52.436c0-0.344-0.016-0.688-0.031-1.016l-0.031,32.107
		C389.559,276.093,383.263,275.828,376.357,275.828z"/>
	<path style="fill:#DA4453;" d="M117.323,297.734c5.047-0.312,11.343-0.578,18.249-0.578c30.217,0,51.498,4.921,63.216,14.593
		c11.53,9.53,18.64,20.312,21.233,32.186c0.641-3.125,1.016-6.219,1.094-9.296c0.5-16.688-7.015-31.562-22.327-44.217
		c-11.718-9.688-32.999-14.594-63.216-14.594c-6.906,0-13.202,0.266-18.249,0.562v-31.154c0,0,0,0,0,0.016V297.734z"/>
</g>
<path style="fill:#FFCE54;" d="M170.665,79.995v42.654c0,0,34.123-10.655,85.323-10.655c51.201,0,85.324,10.655,85.324,10.655
	V79.995c0,0-34.123-10.671-85.324-10.671C204.788,69.324,170.665,79.995,170.665,79.995z"/>
<path style="fill:#F6BB42;" d="M344.5,69.808c-1.453-0.453-36.279-11.156-88.512-11.156c-52.231,0-87.058,10.703-88.511,11.156
	c-4.453,1.391-7.484,5.515-7.484,10.187v42.654c0,3.391,1.609,6.578,4.343,8.593c2.734,2,6.25,2.594,9.5,1.594
	c11.359-3.515,43.154-10.187,82.152-10.187s70.793,6.656,82.152,10.187c1.047,0.328,2.109,0.484,3.172,0.484
	c2.25,0,4.469-0.719,6.328-2.078c2.733-1.999,4.343-5.202,4.343-8.593V79.995C351.983,75.323,348.953,71.199,344.5,69.808z
	 M330.656,108.963c-14.999-3.266-41.279-7.641-74.668-7.641s-59.668,4.375-74.667,7.641V88.151
	c14.89-3.578,42.294-8.156,74.667-8.156s59.794,4.578,74.668,8.156V108.963z"/>
</svg>