<!DOCTYPE svg PUBLIC "-//W3C//DTD SVG 1.1//EN" "http://www.w3.org/Graphics/SVG/1.1/DTD/svg11.dtd">
<!-- Uploaded to: SVG Repo, www.svgrepo.com, Transformed by: SVG Repo Mixer Tools -->
<svg width="800px" height="800px" viewBox="0 0 48 48" id="Layer_2" data-name="Layer 2" xmlns="http://www.w3.org/2000/svg" fill="#ffffff" stroke="#ffffff">
<g id="SVGRepo_bgCarrier" stroke-width="0"/>
<g id="SVGRepo_tracerCarrier" stroke-linecap="round" stroke-linejoin="round" stroke="#fffff" stroke-width="1.8240000000000003">
<defs>
<style>.cls-1{fill:none;stroke:#ffffff;stroke-linecap:round;stroke-linejoin:round;}</style>
</defs>
<path class="cls-1" d="M35.38,10.46a2.19,2.19,0,1,0,2.16,2.22v-.06A2.18,2.18,0,0,0,35.38,10.46Z"/>
<path class="cls-1" d="M40.55,5.5H7.45a2,2,0,0,0-1.95,2v33.1a2,2,0,0,0,2,2h33.1a2,2,0,0,0,2-2V7.45A2,2,0,0,0,40.55,5.5Z"/>
<path class="cls-1" d="M24,15.72A8.28,8.28,0,1,0,32.28,24h0A8.28,8.28,0,0,0,24,15.72Z"/>
</g>
<g id="SVGRepo_iconCarrier">
<defs>
<style>.cls-1{fill:none;stroke:#ffffff;stroke-linecap:round;stroke-linejoin:round;}</style>
</defs>
<path class="cls-1" d="M35.38,10.46a2.19,2.19,0,1,0,2.16,2.22v-.06A2.18,2.18,0,0,0,35.38,10.46Z"/>
<path class="cls-1" d="M40.55,5.5H7.45a2,2,0,0,0-1.95,2v33.1a2,2,0,0,0,2,2h33.1a2,2,0,0,0,2-2V7.45A2,2,0,0,0,40.55,5.5Z"/>
<path class="cls-1" d="M24,15.72A8.28,8.28,0,1,0,32.28,24h0A8.28,8.28,0,0,0,24,15.72Z"/>
</g>
</svg>